HIERARCHY
ROOT hip
{
	OFFSET 0.000000 0.000000 0.000000 
	CHANNELS 6 Xposition Yposition Zposition Xrotation Zrotation Yrotation
	JOINT abdomen
	{
		OFFSET 0.000000 3.402643 0.000000 
		CHANNELS 3 Xrotation Zrotation Yrotation
		JOINT chest
		{
			OFFSET 0.000000 8.438565 -0.680529 
			CHANNELS 3 Xrotation Zrotation Yrotation
			JOINT neck
			{
				OFFSET 0.000000 10.207942 -0.272212 
				CHANNELS 3 Xrotation Zrotation Yrotation
				JOINT head
				{
					OFFSET 0.000000 3.130431 0.000000 
					CHANNELS 3 Xrotation Zrotation Yrotation
					End Site
					{
						OFFSET 0.000000 3.130435 0.000000 
					}
				}
			}
			JOINT lCollar
			{
				OFFSET 3.470700 6.669187 -0.816635 
				CHANNELS 3 Yrotation Zrotation Xrotation
				JOINT lShldr
				{
					OFFSET 3.198488 0.000000 0.000000 
					CHANNELS 3 Zrotation Yrotation Xrotation
					JOINT lForeArm
					{
						OFFSET 10.139888 0.000000 0.000000 
						CHANNELS 3 Yrotation Zrotation Xrotation
						JOINT lHand
						{
							OFFSET 8.370511 0.000000 0.000000 
							CHANNELS 3 Zrotation Yrotation Xrotation
							End Site
							{
								OFFSET 4.083176 0.000000 0.000000 
							}
						}
					}
				}
			}
			JOINT rCollar
			{
				OFFSET -3.470700 6.669187 -0.816635 
				CHANNELS 3 Yrotation Zrotation Xrotation
				JOINT rShldr
				{
					OFFSET -3.198488 0.000000 0.000000 
					CHANNELS 3 Zrotation Yrotation Xrotation
					JOINT rForeArm
					{
						OFFSET -10.139888 0.000000 0.000000 
						CHANNELS 3 Yrotation Zrotation Xrotation
						JOINT rHand
						{
							OFFSET -8.370511 0.000000 0.000000 
							CHANNELS 3 Zrotation Yrotation Xrotation
							End Site
							{
								OFFSET -4.083176 0.000000 0.000000 
							}
						}
					}
				}
			}
		}
	}
	JOINT lThigh
	{
		OFFSET 5.308129 -1.633274 1.361059 
		CHANNELS 3 Xrotation Zrotation Yrotation
		JOINT lShin
		{
			OFFSET -2.041588 -20.007561 0.000000 
			CHANNELS 3 Xrotation Zrotation Yrotation
			JOINT lFoot
			{
				OFFSET 0.000000 -19.190928 -1.224953 
				CHANNELS 3 Xrotation Yrotation Zrotation
				End Site
				{
					OFFSET 0.000000 -2.449906 4.627600 
				}
			}
		}
	}
	JOINT rThigh
	{
		OFFSET -5.308129 -1.633274 1.361059 
		CHANNELS 3 Xrotation Zrotation Yrotation
		JOINT rShin
		{
			OFFSET 2.041588 -20.007561 0.000000 
			CHANNELS 3 Xrotation Zrotation Yrotation
			JOINT rFoot
			{
				OFFSET 0.000000 -19.190928 -1.224953 
				CHANNELS 3 Xrotation Yrotation Zrotation
				End Site
				{
					OFFSET 0.000000 -2.449906 4.627600 
				}
			}
		}
	}
}
MOTION
Frames: 13
Frame Time: 0.033333
-16.476759 40.043026 17.646132 -92.607422 -104.160156 44.502251 10.361329 -8.720703 -6.349136 -15.986329 -8.398438 8.212892 3.808594 10.986328 46.923828 1.728516 -2.148438 48.857235 1.992188 -2.001953 0.000341 -10.019531 65.888680 -71.923828 -28.330080 -0.380859 -0.078125 28.408203 5.878906 16.621094 -2.001953 1.992188 0.000000 19.912132 153.603516 -7.241752 50.537106 0.332031 -0.126953 6.210938 2.275391 40.869530 -20.117010 59.330528 -29.913250 99.293549 0.096632 -11.063388 -8.367087 -0.847994 44.771732 6.663664 5.726606 -1.811576 109.947075 -0.079702 7.787208 5.540678 -1.256063 24.571508 
-17.244705 38.377258 17.387192 64.287117 -71.699211 -124.726074 10.361329 -8.720703 -6.349136 -21.552734 -5.458984 7.391649 3.037110 10.615236 44.406097 7.978516 -5.136719 46.181641 1.992188 -2.001953 0.000341 -25.673830 73.212891 -78.476555 -22.392576 -0.380859 -0.058529 32.695313 6.835937 12.364445 -2.001953 1.992188 0.000000 22.744148 153.164063 -7.690904 48.603512 0.322266 -0.117188 8.984374 5.605469 41.494141 -2.707816 59.131153 -15.139527 92.772713 0.184229 -16.716831 -14.547324 -2.822798 21.087109 9.762930 0.136608 0.391784 104.671867 -0.080400 3.617893 10.121621 0.767331 19.163710 
-18.130043 36.517780 16.980976 48.710938 -67.480469 -118.339104 10.361329 -8.720703 -6.349136 -23.349609 -3.955078 6.865235 2.031250 9.707031 39.698914 8.994141 -5.644531 41.395527 1.992188 -2.001953 0.000341 -36.855469 75.283203 -85.273758 -13.662109 -0.361328 -0.048767 33.398438 7.021484 12.910156 -2.001953 1.992188 0.000000 28.203135 149.218750 -4.848517 43.955078 0.302734 -0.107422 9.628906 7.275390 43.613277 8.467310 53.216362 -6.111706 90.168800 0.201921 -22.840275 -28.793476 -4.372284 3.538809 12.990978 -4.791692 1.351196 99.646164 -0.166861 -0.617881 12.484149 1.508093 13.937796 
-18.752396 34.130486 16.488600 39.101563 -63.388672 -114.217712 10.361329 -8.720703 -6.349136 -20.781250 -3.916016 6.943359 1.025391 8.222656 33.067802 4.755859 -4.121094 34.872349 1.992188 -2.001953 0.000341 -57.939449 73.574219 -97.627350 -8.847656 -0.351563 -0.029297 29.374998 12.646483 17.060549 -2.001953 1.992188 0.000000 40.644543 139.130859 7.135296 40.751953 0.302734 -0.107422 7.275390 9.042969 41.416012 6.817388 46.401161 -7.211942 94.672607 0.153317 -20.387934 -39.257843 -1.735494 -0.824911 16.920757 -8.396418 1.968317 94.800049 -0.226185 -1.060350 1.754028 4.494308 21.280807 
-19.065708 31.503342 16.253138 32.333984 -59.404293 -113.572853 10.361329 -8.720703 -6.349136 -16.777344 -3.847657 7.050126 0.263672 6.591792 26.397623 -1.308594 -1.767578 27.968750 1.992188 -2.001953 0.000341 -75.341797 67.382813 -103.321060 -5.849609 -0.351563 -0.029237 22.958982 17.978514 19.003906 -2.001953 1.992188 0.000000 60.800785 130.625000 26.931238 38.339844 0.302734 -0.097656 3.623047 9.765625 40.206738 3.516570 38.502106 -9.734704 100.992622 0.123683 -16.606253 -44.900478 1.603513 -5.192875 16.354879 -13.863559 3.134136 98.633217 -0.158600 0.791799 -31.476858 -0.975734 23.293028 
-19.306559 29.260960 16.007341 33.105469 -59.150394 -122.547447 10.361329 -8.720703 -6.349136 -7.714845 -2.285156 7.060547 -0.048828 5.117188 20.332029 -8.613281 -5.449219 23.143602 1.992188 -2.001953 0.000341 -95.332031 57.509762 -103.751534 -3.388672 -0.361328 -0.019470 22.265627 14.150392 3.430124 -2.001953 1.992188 0.000000 80.908211 126.845695 44.431644 35.419922 0.283203 -0.097705 -0.458984 10.439452 40.644531 8.720984 31.238962 -8.418112 106.086525 0.182027 -7.805193 -49.675747 6.217934 -14.424431 13.816031 -22.395758 5.448633 103.170258 -0.120555 5.259042 -50.257530 -3.786052 18.404173 
-19.117947 27.156641 15.896239 34.472656 -55.830074 -130.283203 10.361329 -8.720703 -6.349136 -1.279297 1.953125 6.855469 -0.468750 3.076172 11.972656 -14.785155 -13.505859 17.732096 1.992188 -2.001953 0.000341 -102.714844 47.763672 -96.399025 -4.785157 -0.361328 -0.029297 22.587891 15.117186 -7.617187 -2.001953 1.992188 0.000000 -77.236328 56.718750 -117.042610 32.470703 0.273438 -0.097656 -3.867188 10.947266 42.294922 9.072149 26.111868 -9.148720 110.613785 0.167095 -0.124518 -51.260315 11.176631 -23.723631 1.778366 -26.350271 11.097256 108.491089 0.118180 9.368214 -49.142254 0.030983 14.845079 
-18.903603 25.836214 16.052164 38.320316 -54.843750 -137.293137 10.361329 -8.720703 -6.349136 6.542969 5.566407 7.325167 -0.468750 0.839844 3.359518 -19.042967 -17.812500 10.875919 1.992188 -2.001953 0.000341 -98.251953 44.248047 -91.711937 -6.933594 -0.361328 -0.029297 15.039063 13.876953 -9.082031 -2.001953 1.992188 0.000000 -47.890621 57.646488 -93.712456 30.400391 0.263672 -0.087891 -6.542969 11.669922 44.845726 10.827402 23.652739 -9.323680 113.783531 0.215800 4.842883 -51.195705 14.002004 -29.818745 -3.641102 -28.074318 14.312590 111.457031 0.178209 12.492055 -48.124306 2.367664 12.152377 
-18.586021 25.189487 16.276840 41.347656 -54.521484 -138.738419 10.361329 -8.720703 -6.349136 12.802734 9.453125 8.038713 -0.156250 -1.621094 -5.937529 -20.400391 -18.632813 1.412896 1.992188 -2.001953 0.000341 -74.677734 41.816406 -59.492184 -5.849610 -0.332031 -0.029297 4.140625 17.207031 -26.259762 -2.001953 1.992188 0.000000 -11.357421 46.718750 -67.746796 32.919922 0.253906 -0.087891 -8.330078 13.203124 45.937504 9.892588 25.634609 -10.913363 115.749580 0.152640 5.442929 -51.216419 13.642266 -30.710505 -3.738658 -26.402893 14.055661 112.268677 0.235866 11.762059 -47.300407 2.387656 12.934945 
-18.401226 25.188473 16.524435 44.218750 -54.375000 -138.513794 10.361329 -8.720703 -6.349136 16.318357 14.150391 8.730122 0.410156 -3.867188 -14.785814 -17.617189 -15.937500 -9.755859 1.992188 -2.001953 0.000341 -48.232418 26.230469 -41.646072 0.683594 -0.322266 -0.009711 4.003906 17.832031 -27.516539 -2.001953 1.992188 0.000000 16.865234 22.392576 -57.340031 41.464844 0.283203 -0.107470 -9.335938 14.970702 45.539635 8.603978 28.727896 -12.517504 116.473724 0.161139 5.448504 -51.013607 12.262811 -30.112341 -1.483161 -23.774961 12.241892 111.326500 0.196067 9.288994 -46.206207 1.731139 15.219528 
-18.219238 25.525824 16.866844 43.408203 -52.910152 -134.033203 10.361329 -8.720703 -6.349136 14.570312 19.316404 8.535156 1.132813 -5.986328 -23.525391 -13.125001 -9.599609 -21.865232 1.992188 -2.001953 0.000341 -28.613281 -1.093750 -50.166203 0.781250 -0.351562 -0.009706 19.394531 23.925781 -4.794922 -2.001953 1.992188 0.000000 37.324219 -7.841796 -63.388672 50.361328 0.322266 -0.117187 -10.000001 13.388673 41.113281 3.575491 31.617235 -15.183128 116.256348 0.161499 4.671476 -50.385571 10.318024 -28.119167 -0.486730 -20.060102 10.142730 109.239822 0.118006 4.967553 -44.593666 0.130630 19.248446 
-18.431671 26.212547 17.300804 40.253906 -50.937500 -129.441162 10.361329 -8.720703 -6.349136 8.388672 22.558592 6.992187 1.914063 -7.871094 -31.475946 -8.964845 0.029297 -33.300781 1.992188 -2.001953 0.000341 -11.308593 -27.607422 -70.951790 0.839844 -0.361328 -0.009704 37.958984 16.992189 22.746998 -2.001953 1.992188 0.000000 55.703125 -31.718750 -78.764900 52.304688 0.351563 -0.117188 -11.835938 6.464844 34.805790 0.099997 31.204464 -16.035254 115.209953 0.123905 5.611220 -49.845997 9.683518 -27.404692 -0.974446 -18.594620 9.201000 106.730652 0.107675 1.707074 -42.960205 -1.086813 22.449272 
-19.053574 27.593973 17.943714 40.634766 -53.056641 -126.316399 10.361329 -8.720703 -6.349136 3.544922 24.208984 5.609473 3.378906 -10.048829 -41.310295 -5.761719 6.953125 -45.117195 1.992188 -2.001953 0.000341 9.414063 -54.580078 -98.074364 0.761719 -0.332031 -0.009709 47.617188 3.388672 39.082031 -2.001953 1.992188 0.000000 74.707031 -47.470707 -89.733757 42.187504 0.371094 -0.107485 -23.623047 -2.285156 21.435549 1.661879 32.054485 -14.726977 113.131149 0.114151 4.541982 -50.513618 7.869799 -23.288931 5.467560 -17.512119 7.065953 102.873634 -0.091359 -2.500816 -41.346649 -2.734740 26.551502 
